<svg id="Layer_1" data-name="Layer 1" xmlns="http://www.w3.org/2000/svg" viewBox="0 0 458.11 754.35"><defs><style>.cls-1{fill:#f9ed32;}</style></defs><path class="cls-1" d="M611.67,356.27q-34.32-11-52.3-12.54-22.23-1.87-42,11.69-23.8,16.56-26.28,45.89-1.94,22.71,33.25,91T555,614.93q-6.71,79-71.07,124.51-61.38,43.89-145.57,36.73-77.6-6.57-113.55-20.58-2.42-22.11-8.65-72.2-4.38-27-12.47-72,50.94,17.19,68.92,18.71,70.49,6,75-47.48,3.29-38.77-22.49-71.94-42.9-44.61-85.77-89.7-83.15-87.09-73.87-196.36,9.66-114,99.79-165.44,78.58-44.79,202.06-34.32,70,5.94,155.32,33.66Z" transform="translate(-164.53 -22.83)"/></svg>